<svg width="140" height="140" xmlns="http://www.w3.org/2000/svg">

 <g>
  <title>background</title>
  <rect fill="none" id="canvas_background" height="402" width="582" y="-1" x="-1"/>
 </g>
 <g>
  <title>Layer 1</title>
  <path stroke="#33363a" stroke-miterlimit="10" stroke-linejoin="round" stroke-linecap="round" stroke-width="3" fill="none" id="svg_18" d="m112.142523,65.609477c-2.65,0 -5.147,0.506 -7.491,1.518c-0.496,-5.84 -2.31,-11.186 -5.44,-16.033c-3.13,-4.848 -7.228,-8.676 -12.296,-11.477c-5.069,-2.805 -10.543,-4.205 -16.416,-4.205c-2.537,0 -5.089,0.311 -7.663,0.934c-1.189,0.389 -1.785,1.598 -1.785,3.623l0,63.549c0,0.23 0.086,0.508 0.262,0.816c0.171,0.312 0.432,0.525 0.778,0.643l50.108,0.061c5.337,0 9.915,-1.93 13.735,-5.783c3.826,-3.857 5.729,-8.508 5.729,-13.961c0,-5.412 -1.903,-10.047 -5.729,-13.9c-3.82,-3.858 -8.42,-5.785 -13.792,-5.785z" class="st26"/>
  <path fill="#f7441c" id="svg_5" d="m112.367,65.385c-2.65,0 -5.147,0.506 -7.491,1.518c-0.496,-5.84 -2.31,-11.186 -5.44,-16.033c-3.13,-4.848 -7.228,-8.676 -12.296,-11.477c-5.069,-2.805 -10.543,-4.205 -16.416,-4.205c-2.537,0 -5.089,0.311 -7.663,0.934c-1.189,0.389 -1.785,1.598 -1.785,3.623l0,63.549c0,0.23 0.086,0.508 0.262,0.816c0.171,0.312 0.432,0.525 0.778,0.643l50.108,0.061c5.337,0 9.915,-1.93 13.735,-5.783c3.826,-3.857 5.729,-8.508 5.729,-13.961c0,-5.412 -1.903,-10.047 -5.729,-13.9c-3.82,-3.858 -8.42,-5.785 -13.792,-5.785z" class="st65"/>
  <path fill="#ffffff" id="svg_6" d="m112.535634,65.385c-2.65,0 -5.147,0.506 -7.491,1.518c-0.496,-5.84 -2.31,-11.186 -5.44,-16.033c-3.13,-4.848 -7.228,-8.676 -12.296,-11.477c-5.069,-2.805 -10.543,-4.205 -16.416,-4.205c-2.537,0 -5.089,0.311 -7.663,0.934c-1.189,0.389 -1.785,1.598 -1.785,3.623l0,63.549c0,0.23 0.086,0.508 0.262,0.816c0.171,0.312 0.432,0.525 0.778,0.643l50.108,0.061c5.337,0 9.915,-1.93 13.735,-5.783c3.826,-3.857 5.729,-8.508 5.729,-13.961c0,-5.412 -1.903,-10.047 -5.729,-13.9c-3.82,-3.858 -8.42,-5.785 -13.792,-5.785z" class="st62"/>
  <path fill="#05d8c5" id="svg_7" d="m109.054,65.682c-1.441,0.248 -2.838,0.643 -4.178,1.221c-0.042,-0.496 -0.107,-0.984 -0.168,-1.475c-2.312,0.104 -4.511,0.58 -6.582,1.475c-0.496,-5.84 -2.31,-11.186 -5.44,-16.033c-3.13,-4.848 -7.228,-8.676 -12.296,-11.477c-4.056,-2.244 -8.374,-3.572 -12.944,-4.021c-1.456,0.152 -2.916,0.395 -4.385,0.75c-1.189,0.389 -1.785,1.598 -1.785,3.623l0,63.549c0,0.23 0.086,0.508 0.262,0.816c0.171,0.312 0.432,0.525 0.778,0.643l43.531,0.053c5.262,-0.041 9.784,-1.965 13.562,-5.775c3.826,-3.857 5.729,-8.508 5.729,-13.961c0,-5.412 -1.903,-10.047 -5.729,-13.9c-2.977,-3.006 -6.434,-4.824 -10.355,-5.488z" class="st65"/>
  <path fill="#05d8c5" id="svg_8" d="m12.319,71.051c-1.151,0 -2.14,0.418 -2.968,1.256c-0.825,0.836 -1.24,1.859 -1.24,3.064l0,16.939c0,1.559 0.561,2.734 1.674,3.533c1.113,0.797 2.304,1.082 3.571,0.848c1.189,-0.232 2.023,-0.662 2.506,-1.285c0.479,-0.623 0.72,-1.654 0.72,-3.096l0,-16.939c0,-1.205 -0.414,-2.229 -1.239,-3.064c-0.824,-0.838 -1.832,-1.256 -3.024,-1.256z" class="st65"/>
  <path fill="#ffffff" id="svg_9" d="m25.566,55.805c-1.152,0 -2.142,0.42 -2.965,1.258c-0.825,0.834 -1.239,1.84 -1.239,3.008l0,39.484c0,1.129 0.393,1.977 1.181,2.539c0.784,0.566 1.797,0.85 3.023,0.85c1.271,0 2.295,-0.283 3.079,-0.85c0.791,-0.562 1.184,-1.41 1.184,-2.539l0,-39.485c0,-1.168 -0.414,-2.174 -1.239,-3.008c-0.825,-0.837 -1.834,-1.257 -3.024,-1.257z" class="st62"/>
  <path fill="#05d8c5" id="svg_10" d="m38.872,61.006c-1.191,0 -2.207,0.428 -3.052,1.283c-0.844,0.854 -1.268,1.889 -1.268,3.096l0,36.037l-0.001,0c0,1.133 0.403,1.979 1.211,2.541c0.804,0.566 1.842,0.848 3.109,0.848c1.228,0 2.236,-0.281 3.024,-0.848c0.788,-0.562 1.181,-1.408 1.181,-2.541l0,-36.037c0,-1.207 -0.412,-2.242 -1.24,-3.096c-0.824,-0.855 -1.814,-1.283 -2.964,-1.283z" class="st65"/>
  <path fill="#ffffff" id="svg_11" d="m53.387,37.639c-1.268,-0.311 -2.516,0.059 -3.743,1.111c-1.229,1.049 -1.845,2.531 -1.845,4.439l0,58.408l0,0c0,2.143 1.42,3.213 4.264,3.213c2.841,0 4.262,-1.07 4.262,-3.213l0,-58.408c-0.001,-3.271 -0.98,-5.121 -2.938,-5.55z" class="st62"/>
  <path fill="#ff7639" id="svg_13" d="m34.553,101.422l0,0c-0.001,0 0,0.014 0,0.021l0,-0.021z" class="st98"/>
  <path stroke="#33363a" stroke-miterlimit="10" stroke-linejoin="round" stroke-linecap="round" stroke-width="3" fill="none" id="svg_17" d="m112.41362,64.90752c-2.64367,0 -5.13471,0.51213 -7.47311,1.53638c-0.49482,-5.91072 -2.30448,-11.32146 -5.42701,-16.22716c-3.12252,-4.90671 -7.21074,-8.78106 -12.26663,-11.61598c-5.0569,-2.83897 -10.51782,-4.25593 -16.3768,-4.25593c-2.53094,0 -5.07684,0.31477 -7.6447,0.94531c-1.18616,0.39371 -1.78073,1.61736 -1.78073,3.66688l0,64.31857c0,0.23279 0.08579,0.51416 0.26137,0.82589c0.17059,0.31577 0.43097,0.53135 0.77614,0.65078l49.98833,0.06174c5.32426,0 9.89133,-1.95337 13.7022,-5.85303c3.81686,-3.90371 5.71532,-8.61103 5.71532,-14.13007c0,-5.47754 -1.89846,-10.16867 -5.71532,-14.06833c-3.81087,-3.90472 -8.39989,-5.85505 -13.75906,-5.85505z" class="st26"/>
  <path stroke="#33363a" stroke-miterlimit="10" stroke-linejoin="round" stroke-linecap="round" stroke-width="3" fill="none" id="svg_19" d="m12.543477,69.704137c-1.151,0 -2.14,0.418 -2.968,1.256c-0.825,0.836 -1.24,1.859 -1.24,3.064l0,16.939c0,1.559 0.561,2.734 1.674,3.533c1.113,0.797 2.304,1.082 3.571,0.848c1.189,-0.232 2.023,-0.662 2.506,-1.285c0.479,-0.623 0.72,-1.654 0.72,-3.096l0,-16.939c0,-1.205 -0.414,-2.229 -1.239,-3.064c-0.824,-0.838 -1.832,-1.256 -3.024,-1.256z" class="st26"/>
  <path stroke-miterlimit="10" stroke-linejoin="round" stroke-linecap="round" stroke-width="3" stroke="#33363a" fill="none" id="svg_20" d="m25.734634,54.903782c-1.152,0 -2.142,0.42 -2.965,1.258c-0.825,0.834 -1.239,1.84 -1.239,3.008l0,39.484c0,1.129 0.393,1.977 1.181,2.539c0.784,0.566 1.797,0.85 3.023,0.85c1.271,0 2.295,-0.283 3.079,-0.85c0.791,-0.562 1.184,-1.41 1.184,-2.539l0,-39.485c0,-1.168 -0.414,-2.174 -1.239,-3.008c-0.825,-0.837 -1.834,-1.257 -3.024,-1.257z" class="st26"/>
  <path stroke-miterlimit="10" stroke-linejoin="round" stroke-linecap="round" stroke-width="3" stroke="#33363a" fill="none" id="svg_21" d="m38.647522,59.659136c-1.191,0 -2.207,0.428 -3.052,1.283c-0.844,0.854 -1.268,1.889 -1.268,3.096l0,36.037l-0.001,0c0,1.133 0.403,1.979 1.211,2.541c0.804,0.566 1.842,0.848 3.109,0.848c1.228,0 2.236,-0.281 3.024,-0.848c0.788,-0.562 1.181,-1.408 1.181,-2.541l0,-36.037c0,-1.207 -0.412,-2.242 -1.24,-3.096c-0.824,-0.855 -1.814,-1.283 -2.964,-1.283z" class="st26"/>
  <path stroke="#33363a" stroke-miterlimit="10" stroke-linejoin="round" stroke-linecap="round" stroke-width="3" fill="none" id="svg_22" d="m53.829096,37.639c-1.368318,-0.311 -2.715054,0.059 -4.039129,1.111c-1.326233,1.049 -1.990968,2.531 -1.990968,4.439l0,58.408l0,0c0,2.143 1.532344,3.213 4.601348,3.213c3.065767,0 4.599189,-1.07 4.599189,-3.213l0,-58.408c-0.001079,-3.271 -1.057533,-5.121 -3.170441,-5.55z" class="st26"/>
  <path stroke-miterlimit="10" stroke-linejoin="round" stroke-linecap="round" stroke-width="3" stroke="#33363a" fill="none" id="svg_24" d="m34.553,101.422l0,0c-0.001,0 0,0.014 0,0.021l0,-0.021z" class="st26"/>
  <path stroke-miterlimit="10" stroke-linejoin="round" stroke-linecap="round" stroke-width="3" stroke="#33363a" fill="none" id="svg_25" d="m106.007,89.312c0,3.314 2.689,6.002 6.006,6.002c4.144,0 7.505,-3.359 7.505,-7.504c0,-5.182 -4.201,-9.381 -9.383,-9.381c-6.477,0 -11.725,5.248 -11.725,11.727c0,8.094 6.562,14.656 14.657,14.656" class="st26"/>
 </g>
</svg>
